<?xml version="1.0" encoding="UTF-8"?>
<svg width="1600" height="1600"
     viewBox="0 0 1600 1600"
     xmlns="http://www.w3.org/2000/svg">

    <rect width="100%" height="100%" fill="#fcfcfc"/>
    <line x1="0" y1="0" x2="0" y2="1600" stroke="#e8e8e8" stroke-width="1"/><line x1="100" y1="0" x2="100" y2="1600" stroke="#e8e8e8" stroke-width="1"/><line x1="200" y1="0" x2="200" y2="1600" stroke="#e8e8e8" stroke-width="1"/><line x1="300" y1="0" x2="300" y2="1600" stroke="#e8e8e8" stroke-width="1"/><line x1="400" y1="0" x2="400" y2="1600" stroke="#e8e8e8" stroke-width="1"/><line x1="500" y1="0" x2="500" y2="1600" stroke="#e8e8e8" stroke-width="1"/><line x1="600" y1="0" x2="600" y2="1600" stroke="#e8e8e8" stroke-width="1"/><line x1="700" y1="0" x2="700" y2="1600" stroke="#e8e8e8" stroke-width="1"/><line x1="800" y1="0" x2="800" y2="1600" stroke="#e8e8e8" stroke-width="1"/><line x1="900" y1="0" x2="900" y2="1600" stroke="#e8e8e8" stroke-width="1"/><line x1="1000" y1="0" x2="1000" y2="1600" stroke="#e8e8e8" stroke-width="1"/><line x1="1100" y1="0" x2="1100" y2="1600" stroke="#e8e8e8" stroke-width="1"/><line x1="1200" y1="0" x2="1200" y2="1600" stroke="#e8e8e8" stroke-width="1"/><line x1="1300" y1="0" x2="1300" y2="1600" stroke="#e8e8e8" stroke-width="1"/><line x1="1400" y1="0" x2="1400" y2="1600" stroke="#e8e8e8" stroke-width="1"/><line x1="1500" y1="0" x2="1500" y2="1600" stroke="#e8e8e8" stroke-width="1"/><line x1="1600" y1="0" x2="1600" y2="1600" stroke="#e8e8e8" stroke-width="1"/><line x1="0" y1="0" x2="1600" y2="0" stroke="#e8e8e8" stroke-width="1"/><line x1="0" y1="100" x2="1600" y2="100" stroke="#e8e8e8" stroke-width="1"/><line x1="0" y1="200" x2="1600" y2="200" stroke="#e8e8e8" stroke-width="1"/><line x1="0" y1="300" x2="1600" y2="300" stroke="#e8e8e8" stroke-width="1"/><line x1="0" y1="400" x2="1600" y2="400" stroke="#e8e8e8" stroke-width="1"/><line x1="0" y1="500" x2="1600" y2="500" stroke="#e8e8e8" stroke-width="1"/><line x1="0" y1="600" x2="1600" y2="600" stroke="#e8e8e8" stroke-width="1"/><line x1="0" y1="700" x2="1600" y2="700" stroke="#e8e8e8" stroke-width="1"/><line x1="0" y1="800" x2="1600" y2="800" stroke="#e8e8e8" stroke-width="1"/><line x1="0" y1="900" x2="1600" y2="900" stroke="#e8e8e8" stroke-width="1"/><line x1="0" y1="1000" x2="1600" y2="1000" stroke="#e8e8e8" stroke-width="1"/><line x1="0" y1="1100" x2="1600" y2="1100" stroke="#e8e8e8" stroke-width="1"/><line x1="0" y1="1200" x2="1600" y2="1200" stroke="#e8e8e8" stroke-width="1"/><line x1="0" y1="1300" x2="1600" y2="1300" stroke="#e8e8e8" stroke-width="1"/><line x1="0" y1="1400" x2="1600" y2="1400" stroke="#e8e8e8" stroke-width="1"/><line x1="0" y1="1500" x2="1600" y2="1500" stroke="#e8e8e8" stroke-width="1"/><line x1="0" y1="1600" x2="1600" y2="1600" stroke="#e8e8e8" stroke-width="1"/>
    <rect x="20" y="20" width="1560" height="1560"
          fill="none" stroke="#bdbdbd" stroke-width="2"/>
    <text x="60" y="80"
          font-size="42"
          font-family="Arial"
          fill="#222">
        Замкнена C1-неперервна кубічна крива (варіант 18, scale = 1.0)
    </text>


    <g transform="translate(-112.3715,-177.9899) scale(3.6116)">
        <path
            d="M 437,153 C 419.50,162.67 243.83,129.17 244.00,167.00 C 244.17,204.83 467.83,336.33 438.00,380.00 C 408.17,423.67 79.83,474.17 65.00,429.00 C 50.17,383.83 287.00,155.00 349.00,109.00 C 411.00,63.00 454.50,143.33 437.00,153.00 Z"
            fill="none"
            stroke="#111"
            stroke-width="1.1075" />
        <circle cx="437" cy="153" r="2.7688" fill="#d62828" stroke="white" stroke-width="0.8306" /><circle cx="244" cy="167" r="2.7688" fill="#d62828" stroke="white" stroke-width="0.8306" /><circle cx="438" cy="380" r="2.7688" fill="#d62828" stroke="white" stroke-width="0.8306" /><circle cx="65" cy="429" r="2.7688" fill="#d62828" stroke="white" stroke-width="0.8306" /><circle cx="349" cy="109" r="2.7688" fill="#d62828" stroke="white" stroke-width="0.8306" />
        <text x="441.9839" y="148.0161" font-size="7.7527" font-family="Arial" fill="#222">P1</text><text x="248.9839" y="162.0161" font-size="7.7527" font-family="Arial" fill="#222">P2</text><text x="442.9839" y="375.0161" font-size="7.7527" font-family="Arial" fill="#222">P3</text><text x="69.9839" y="424.0161" font-size="7.7527" font-family="Arial" fill="#222">P4</text><text x="353.9839" y="104.0161" font-size="7.7527" font-family="Arial" fill="#222">P5</text>
    </g>

</svg>
